<?xml version="1.0" encoding="UTF-8"?>
<svg version="1.1" xmlns="http://www.w3.org/2000/svg" width="200" height="80">
<path d="M0 0 C3.96 0.33 7.92 0.66 12 1 C11.67 4.96 11.34 8.92 11 13 C12.5778125 12.9690625 12.5778125 12.9690625 14.1875 12.9375 C18 13 18 13 23 14 C23.33 9.71 23.66 5.42 24 1 C27.96 1.33 31.92 1.66 36 2 C35.73867176 6.50268184 35.47202075 11.00500499 35.20043945 15.50708008 C35.10880638 17.03856872 35.01862656 18.57014503 34.92993164 20.10180664 C34.80216634 22.30379526 34.6691723 24.50541532 34.53515625 26.70703125 C34.47727684 27.73374687 34.47727684 27.73374687 34.41822815 28.78120422 C34.23395528 31.73409744 33.94134628 34.17596115 33 37 C27.555 37.495 27.555 37.495 22 38 C22 40.31 22 42.62 22 45 C26.95 44.67 31.9 44.34 37 44 C37 46.31 37 48.62 37 51 C23.8 51.66 10.6 52.32 -3 53 C-3.33 51.02 -3.66 49.04 -4 47 C-0.85069107 45.95023036 1.38814456 45.89868405 4.6875 45.9375 C5.68136719 45.94652344 6.67523438 45.95554688 7.69921875 45.96484375 C8.83810547 45.98224609 8.83810547 45.98224609 10 46 C10 44.02 10 42.04 10 40 C5.71 40 1.42 40 -3 40 C-2.01 26.8 -1.02 13.6 0 0 Z M10 19 C9.67 23.62 9.34 28.24 9 33 C15.435 32.505 15.435 32.505 22 32 C22.33 28.04 22.66 24.08 23 20 C18.71 19.67 14.42 19.34 10 19 Z " fill="#FE2EF7" transform="translate(8,4)"/>
<path d="M0 0 C3.63 0 7.26 0 11 0 C10.73723761 4.57175964 10.47058309 9.14327017 10.20043945 13.71459961 C10.10921971 15.26727263 10.01903322 16.82000673 9.92993164 18.37280273 C9.8011097 20.61459232 9.66847906 22.85613036 9.53515625 25.09765625 C9.49656998 25.78336197 9.4579837 26.46906769 9.41822815 27.17555237 C9.15633352 31.50151579 8.66391729 35.72223256 8 40 C5.03 40.495 5.03 40.495 2 41 C3.65 41.66 5.3 42.32 7 43 C6.41070989 46.03063487 5.74955438 49.0017825 5 52 C9.95 55.3 14.9 58.6 20 62 C18 67 18 67 16.296875 68.08984375 C12.5993671 67.94521334 10.11428065 65.69969403 7.25 63.5625 C6.64800781 63.12873047 6.04601562 62.69496094 5.42578125 62.24804688 C3.94230599 61.17664807 2.47002848 60.08977545 1 59 C-0.98 62.63 -2.96 66.26 -5 70 C-13.49609375 67.8515625 -13.49609375 67.8515625 -16 67 C-16.33 66.34 -16.66 65.68 -17 65 C-16.04370117 62.61743164 -16.04370117 62.61743164 -14.54296875 59.66015625 C-14.00736328 58.59732422 -13.47175781 57.53449219 -12.91992188 56.43945312 C-12.34822266 55.32505859 -11.77652344 54.21066406 -11.1875 53.0625 C-10.62740234 51.95197266 -10.06730469 50.84144531 -9.49023438 49.69726562 C-5.33821903 41.50732854 -5.33821903 41.50732854 -3 38 C-2.72406826 35.28904176 -2.5359851 32.65424749 -2.4375 29.9375 C-2.11924736 22.23849473 -2.11924736 22.23849473 -1 20 C-2.19625 20.020625 -3.3925 20.04125 -4.625 20.0625 C-8.18004869 20.06882571 -11.50555624 19.69888875 -15 19 C-14.67 17.02 -14.34 15.04 -14 13 C-12.783125 12.979375 -11.56625 12.95875 -10.3125 12.9375 C-9.62800781 12.92589844 -8.94351563 12.91429687 -8.23828125 12.90234375 C-6 13 -6 13 -1 14 C-0.67 9.38 -0.34 4.76 0 0 Z " fill="#FE2EF7" transform="translate(172,6)"/>
<path d="M0 0 C12.54 0.66 25.08 1.32 38 2 C38 3.65 38 5.3 38 7 C36.23750149 8.76249851 33.51427301 8.12733845 31.125 8.1875 C27.89665777 8.3570837 27.89665777 8.3570837 25 9 C22.4702894 11.63907423 22.4702894 11.63907423 22 15 C22.30642393 17.52320484 22.66327239 18.66928439 24.49047852 20.46386719 C25.42525024 21.12370605 25.42525024 21.12370605 26.37890625 21.796875 C27.05244141 22.28027344 27.72597656 22.76367188 28.41992188 23.26171875 C29.12697266 23.75285156 29.83402344 24.24398438 30.5625 24.75 C31.27341797 25.25660156 31.98433594 25.76320313 32.71679688 26.28515625 C34.47101432 27.53312303 36.23463359 28.76785497 38 30 C37.38722388 32.96175123 36.74627478 34.38058783 35 37 C30.94785821 35.25477062 27.69396039 32.5771843 24.25 29.875 C23.64800781 29.40707031 23.04601562 28.93914063 22.42578125 28.45703125 C20.94813384 27.30774993 19.47373995 26.15428765 18 25 C15.40962402 28.20490963 13.62056844 31.55350453 11.8125 35.25 C11.28269531 36.32765625 10.75289062 37.4053125 10.20703125 38.515625 C9.80871094 39.33546875 9.41039063 40.1553125 9 41 C7.18447022 40.38385645 5.3726347 39.75681772 3.5625 39.125 C2.04849609 38.60292969 2.04849609 38.60292969 0.50390625 38.0703125 C-2 37 -2 37 -3 35 C-1.82836914 32.29443359 -1.82836914 32.29443359 -0.03515625 28.8984375 C0.27700333 28.30197418 0.5891629 27.70551086 0.91078186 27.0909729 C1.91224257 25.18162344 2.92469588 23.27835259 3.9375 21.375 C4.617267 20.08371765 5.29631301 18.79205547 5.97460938 17.5 C7.64138745 14.32887892 9.3180745 11.16311828 11 8 C9.93458984 7.90912109 9.93458984 7.90912109 8.84765625 7.81640625 C7.92855469 7.73261719 7.00945312 7.64882812 6.0625 7.5625 C4.68771484 7.44068359 4.68771484 7.44068359 3.28515625 7.31640625 C1 7 1 7 0 6 C0 4.02 0 2.04 0 0 Z " fill="#FE2EF7" transform="translate(60,4)"/>
<path d="M0 0 C3.96 0.33 7.92 0.66 12 1 C11.34 10.9 10.68 20.8 10 31 C18.58 30.67 27.16 30.34 36 30 C36.495 32.97 36.495 32.97 37 36 C32.38476216 36.85547243 27.80555019 37.29913455 23.125 37.5625 C22.02973999 37.62618774 22.02973999 37.62618774 20.91235352 37.69116211 C13.27387805 38.09844913 5.64654784 38.09262306 -2 38 C-2.4038838 25.25522231 -1.16580293 12.67810691 0 0 Z " fill="#FE2EF7" transform="translate(130,5)"/>
<path d="M0 0 C3.63 0 7.26 0 11 0 C10.50404129 13.348676 9.98166393 26.67741803 9 40 C5.04 40 1.08 40 -3 40 C-1.47594142 4.42782427 -1.47594142 4.42782427 0 0 Z " fill="#FE2EF7" transform="translate(104,6)"/>
<path d="M0 0 C3.63 0.33 7.26 0.66 11 1 C10.73723761 5.57175964 10.47058309 10.14327017 10.20043945 14.71459961 C10.10921971 16.26727263 10.01903322 17.82000673 9.92993164 19.37280273 C9.8011097 21.61459232 9.66847906 23.85613036 9.53515625 26.09765625 C9.49656998 26.78336197 9.4579837 27.46906769 9.41822815 28.17555237 C9.15633352 32.50151579 8.66391729 36.72223256 8 41 C6.54207116 41.05399736 5.08357288 41.09279177 3.625 41.125 C2.81289062 41.14820313 2.00078125 41.17140625 1.1640625 41.1953125 C-1 41 -1 41 -3 39 C-2.96248441 36.04536291 -2.80366 33.20969435 -2.5390625 30.2734375 C-2.46964447 29.41062164 -2.40022644 28.54780579 -2.32870483 27.65884399 C-2.10414717 24.89663165 -1.86474743 22.13593141 -1.625 19.375 C-1.47037683 17.5052889 -1.31671854 15.63549774 -1.1640625 13.765625 C-0.78724161 9.17607855 -0.39710303 4.58783426 0 0 Z " fill="#FF00FF" transform="translate(185,6)"/>
</svg>
