<?xml version="1.0" encoding="UTF-8"?>
<svg id="_레이어_2" data-name="레이어_2" xmlns="http://www.w3.org/2000/svg" xmlns:xlink="http://www.w3.org/1999/xlink" viewBox="0 0 146.55 64.04">
  <defs>
    <style>
      .cls-1 {
        fill: url(#linear-gradient-2);
      }

      .cls-2 {
        fill: url(#linear-gradient-4);
      }

      .cls-3 {
        fill: url(#linear-gradient-3);
      }

      .cls-4 {
        fill: url(#linear-gradient-5);
      }

      .cls-5 {
        fill: url(#linear-gradient);
      }
    </style>
    <linearGradient id="linear-gradient" x1="32.01" y1="66.24" x2="127.26" y2="8.28" gradientUnits="userSpaceOnUse">
      <stop offset="0" stop-color="#e3ba7f"/>
      <stop offset=".31" stop-color="#a5775e"/>
      <stop offset=".65" stop-color="#e3ba7f"/>
      <stop offset="1" stop-color="#a5775e"/>
    </linearGradient>
    <linearGradient id="linear-gradient-2" x1="-131.86" y1="3.91" x2="-107.2" y2="-20.75" gradientTransform="translate(130.43 -105.9) rotate(-90)" xlink:href="#linear-gradient"/>
    <linearGradient id="linear-gradient-3" x1="-196.51" y1="-15.26" x2="-133.87" y2="-100.01" gradientTransform="translate(130.43 -105.9) rotate(-90)" xlink:href="#linear-gradient"/>
    <linearGradient id="linear-gradient-4" x1="59.11" y1="25.68" x2="86.6" y2="-1.82" xlink:href="#linear-gradient"/>
    <linearGradient id="linear-gradient-5" x1="-129.08" y1="-92.64" x2="-110.32" y2="-122.05" gradientTransform="translate(130.43 -105.9) rotate(-90)" xlink:href="#linear-gradient"/>
  </defs>
  <g id="_레이어_1-2" data-name="레이어_1">
    <path class="cls-5" d="M7.98,43.03v-13.48c0-4.68,2.76-6.92,6.92-6.92h5.41c4.16,0,6.81,2.25,6.81,6.92v13.48c0,4.68-2.65,6.92-6.81,6.92h-5.41c-4.16,0-6.92-2.25-6.92-6.92ZM14.54,28.52v15.54h6.04v-15.54h-6.04ZM36.44,27.75h4.31v5.89h-4.31v5.34h4.31v5.89h-4.31v10.71h-6.63V21.42h6.63v6.33ZM68.7,34.38h-7.44v2.06h12.45v5.16h-31.67v-5.16h12.45v-2.06h-6.22c-2.17,0-3.2-1.44-3.2-3.39v-9.39h25.04v5.23h-18.19v2.47h19.44l-2.65,5.08ZM44.88,50.21v-1.14c0-4.12,2.54-6,7.58-6h10.71c5.04,0,7.58,1.88,7.58,6v1.14c0,4.12-2.54,6-7.58,6h-10.71c-5.04,0-7.58-1.88-7.58-6ZM63.95,48.15h-12.26v2.83h12.26v-2.83ZM98.49,44.1v-3.98l-1.73,3.13-21.21.41v-4.53l7.73-.07v-1.58h-1.29c-3.17,0-4.9-1.66-4.9-4.46v-1.03c0-2.8,1.73-4.46,4.9-4.46h9.06c3.17,0,4.9,1.66,4.9,4.46v1.03c0,2.8-1.73,4.46-4.9,4.46h-1.29v1.51l8.73-.11v-17.45h6.33v8.17h3.68v5.52h-3.68v8.98h-6.33ZM83.29,22.56v-2.65h6.48v2.65h7.25v4.12h-21.1v-4.12h7.36ZM104.75,49.88v1.21c0,3.31-1.95,5.12-6.41,5.12h-12.44c-4.46,0-6.41-1.84-6.41-5.12v-1.21c0-3.28,1.95-5.12,6.41-5.12h12.44c4.46,0,6.41,1.84,6.41,5.12ZM82.99,33.5h7.07v-2.14h-7.07v2.14ZM98.13,49.18h-12v2.54h12v-2.54ZM118.01,28.93h-8.14v-5.74h14.43v3.87c0,1.69-.07,2.25-.85,4.05-.77,1.77-1.73,3.79-2.87,5.93l6.55,8.76v-6.81h-3.87v-5.82h3.87v-11.52h5.74v33.39h-5.74v-8.69l-4.09,3.17-5.34-7.36c-1.62,2.72-3.39,5.38-5.19,7.66l-4.68-3.5c4.12-5.3,8.36-12.37,10.16-17.38ZM140.73,55.59h-5.89V21.42h5.89v34.17Z"/>
    <path class="cls-1" d="M144.11,11.69c-.3-1.23-.93-1.73-1.4-1.11-.36.47-.58,1.51-.52,2.49.03.53.14,1.02.31,1.35.16.31.34.43.51.36.19-.08.37-.46.46-.97.09-.49.09-1.01,0-1.42-.01-.07-.05-.1-.07-.06-.03.04-.04.13-.02.2.07.33.07.75,0,1.15-.08.43-.22.74-.38.81-.14.06-.3-.05-.43-.31-.14-.28-.24-.72-.27-1.16-.05-.86.15-1.78.46-2.19.42-.55.99-.09,1.26,1.01.26,1.06.22,2.59-.08,3.64-.29,1-.79,1.55-1.29,1.4-.46-.14-.92-.87-1.23-1.95-.09-.33-.17-.69-.25-1.04-.12-.53-.24-1.08-.41-1.54-.54-1.46-1.51-1.52-2.07-.13-.17.42-.3.94-.43,1.45-.03.13-.06.25-.1.38-.69.04-1.37.08-2.04.13-.23-.51-.47-1-.76-1.21-.24-.17-.52-.05-.72.31-.14.26-.23.61-.26,1.02-3.52.25-6.87.46-10.36-.06-.8-.58-1.49-1.69-1.94-3.13-.03-.1-.09-.1-.13,0-.45,1.44-1.14,2.55-1.94,3.13-3.5.52-6.85.31-10.36.06-.03-.41-.12-.76-.26-1.02-.2-.36-.48-.49-.72-.31-.29.21-.53.7-.76,1.21-.67-.05-1.36-.09-2.04-.13-.03-.12-.07-.25-.1-.38-.13-.5-.26-1.03-.43-1.45-.56-1.39-1.53-1.33-2.07.13-.17.45-.29,1-.41,1.54-.08.35-.16.71-.25,1.04-.31,1.1-.76,1.82-1.23,1.95-.5.15-1.01-.4-1.29-1.4-.3-1.05-.34-2.58-.08-3.64.27-1.09.84-1.55,1.26-1.01.31.41.51,1.33.46,2.19-.02.44-.12.87-.27,1.16-.13.26-.28.37-.43.31-.16-.07-.3-.38-.38-.81-.07-.4-.07-.82,0-1.15.01-.07,0-.16-.02-.2-.03-.04-.06-.01-.07.06-.09.42-.09.94,0,1.42.09.52.27.89.46.97.17.08.36-.05.51-.36.17-.33.28-.83.31-1.35.05-.98-.17-2.03-.52-2.49-.47-.62-1.1-.12-1.4,1.11-.28,1.16-.25,2.83.08,3.98.28.96.74,1.54,1.22,1.54.06,0,.11,0,.17-.03.5-.15.98-.9,1.31-2.07.06-.23.12-.46.18-.7,1,0,1.99.03,2.98.08.25.91.51,1.41.79,1.55.33.16.69-.2,1.11-1.11.05-.1.09-.21.14-.31.44.03.87.06,1.3.09,2.09.15,4.11.3,6.14.3,1.54,0,3.07-.09,4.64-.32,0,0,0,0,0,.01.81.57,1.52,1.7,1.97,3.16.02.05.04.08.06.08s.05-.03.06-.08c.46-1.46,1.16-2.58,1.97-3.16,0,0,0,0,0-.01,1.57.23,3.1.32,4.64.32,2.03,0,4.05-.15,6.14-.3.43-.03.86-.06,1.3-.09.05.11.09.21.14.31.41.9.78,1.27,1.11,1.11.28-.13.54-.64.79-1.55.99-.05,1.98-.08,2.98-.08.06.24.11.48.18.7.33,1.17.81,1.92,1.31,2.07.06.02.11.03.17.03.48,0,.94-.58,1.22-1.54.33-1.15.37-2.82.08-3.98ZM103.35,12.57c.5-1.35,1.4-1.4,1.92-.12.16.4.29.91.41,1.4.02.07.04.14.05.2-.91-.05-1.83-.08-2.76-.08.11-.51.23-1,.38-1.4ZM107.67,14.71c-.39.85-.72,1.19-1.02,1.05-.23-.11-.45-.52-.67-1.25.58.03,1.15.07,1.73.11-.01.03-.03.06-.04.1ZM108.08,14.2c.19-.41.39-.77.62-.93.21-.15.46-.04.63.27.08.14.17.39.21.76-.12,0-.23-.02-.35-.02-.37-.03-.74-.05-1.11-.08ZM122.01,17.39c-.43-1.27-1.03-2.28-1.72-2.89.7-.61,1.3-1.62,1.72-2.89.43,1.27,1.03,2.28,1.72,2.89-.7.61-1.3,1.62-1.72,2.89ZM138.34,13.85c.12-.49.25-1,.41-1.4.52-1.29,1.42-1.23,1.92.12.15.41.26.89.38,1.4-.92,0-1.85.03-2.76.08.02-.07.04-.13.05-.2ZM134.83,14.27c-.12,0-.23.02-.35.02.03-.37.13-.62.21-.76.17-.32.42-.42.63-.27.23.16.43.53.62.93-.37.03-.74.05-1.11.08ZM137.36,15.76c-.3.14-.63-.2-1.02-1.05-.01-.03-.03-.06-.04-.1.57-.04,1.15-.08,1.73-.11-.22.73-.43,1.14-.67,1.25Z"/>
    <path class="cls-3" d="M145.93,57.79c-.98-1.23-3.05-1.73-4.6-1.11-1.17.47-1.9,1.51-1.72,2.49.09.53.47,1.02,1.02,1.35.51.31,1.11.43,1.68.36.63-.08,1.21-.46,1.51-.97.29-.49.29-1.01,0-1.42-.05-.07-.16-.1-.25-.06-.09.04-.12.13-.07.2.23.33.22.75-.01,1.15-.25.43-.73.74-1.24.81-.47.06-.97-.05-1.41-.31-.47-.28-.8-.72-.88-1.16-.15-.86.49-1.78,1.52-2.19,1.37-.55,3.27-.09,4.14,1.01.84,1.06.73,2.59-.26,3.64-.94,1-2.61,1.55-4.26,1.4-1.53-.14-3.04-.87-4.05-1.95-.3-.33-.57-.69-.83-1.04-.39-.53-.8-1.08-1.35-1.54-1.77-1.46-4.95-1.52-6.8-.13-.56.42-1,.94-1.41,1.45-.1.13-.21.25-.32.38-2.25.04-4.49.08-6.71.13-.75-.51-1.54-1-2.49-1.21-.78-.17-1.71-.05-2.37.31-.47.26-.76.61-.85,1.02-11.57.25-22.58.46-34.07-.06-2.62-.58-4.88-1.69-6.37-3.13-.1-.1-.31-.1-.42,0-1.48,1.44-3.74,2.55-6.37,3.13-11.5.52-22.51.31-34.07.06-.09-.41-.38-.76-.85-1.02-.66-.36-1.59-.49-2.37-.31-.95.21-1.74.7-2.49,1.21-2.22-.05-4.46-.09-6.71-.13-.11-.12-.21-.25-.32-.38-.42-.5-.85-1.03-1.41-1.45-1.85-1.39-5.03-1.33-6.8.13-.55.45-.96,1-1.35,1.54-.26.35-.52.71-.83,1.04-1.03,1.1-2.5,1.82-4.05,1.95-1.64.15-3.31-.4-4.26-1.4-.99-1.05-1.1-2.58-.26-3.64.87-1.09,2.77-1.55,4.14-1.01,1.03.41,1.67,1.33,1.52,2.19-.08.44-.41.87-.88,1.16-.44.26-.94.37-1.41.31-.51-.07-.99-.38-1.24-.81-.24-.4-.24-.82-.01-1.15.05-.07.02-.16-.07-.2-.09-.04-.2-.01-.25.06-.29.42-.29.94,0,1.42.31.52.88.89,1.51.97.57.08,1.17-.05,1.68-.36.56-.33.93-.83,1.02-1.35.17-.98-.55-2.03-1.72-2.49-1.56-.62-3.62-.12-4.6,1.11-.92,1.16-.81,2.83.28,3.98.91.96,2.44,1.54,4.02,1.54.19,0,.38,0,.57-.03,1.65-.15,3.21-.9,4.3-2.07.21-.23.4-.46.58-.7,3.28,0,6.55.03,9.79.08.82.91,1.67,1.41,2.59,1.55,1.09.16,2.27-.2,3.63-1.11.15-.1.31-.21.46-.31,1.43.03,2.86.06,4.27.09,6.87.15,13.53.3,20.19.3,5.05,0,10.1-.09,15.25-.32,0,0,.02,0,.03.01,2.68.57,4.98,1.7,6.49,3.16.05.05.13.08.21.08s.16-.03.21-.08c1.51-1.46,3.81-2.58,6.49-3.16.01,0,.02,0,.03-.01,5.15.23,10.21.32,15.25.32,6.66,0,13.32-.15,20.19-.3,1.41-.03,2.84-.06,4.27-.09.15.11.31.21.46.31,1.36.9,2.55,1.27,3.63,1.11.92-.13,1.77-.64,2.59-1.55,3.24-.05,6.51-.08,9.79-.08.18.24.37.48.58.7,1.09,1.17,2.65,1.92,4.3,2.07.19.02.38.03.57.03,1.57,0,3.11-.58,4.02-1.54,1.08-1.15,1.2-2.82.28-3.98ZM11.93,58.67c1.64-1.35,4.59-1.4,6.3-.12.53.4.95.91,1.36,1.4.06.07.12.14.17.2-3-.05-6.03-.08-9.07-.08.38-.51.74-1,1.24-1.4ZM26.14,60.81c-1.27.85-2.37,1.19-3.34,1.05-.76-.11-1.48-.52-2.19-1.25,1.9.03,3.79.07,5.67.11-.05.03-.09.06-.14.1ZM27.47,60.29c.62-.41,1.28-.77,2.03-.93.69-.15,1.5-.04,2.08.27.26.14.57.39.68.76-.38,0-.76-.02-1.14-.02-1.21-.03-2.43-.05-3.65-.08ZM73.28,63.48c-1.4-1.27-3.38-2.28-5.67-2.89,2.29-.61,4.27-1.62,5.67-2.89,1.4,1.27,3.38,2.28,5.67,2.89-2.29.61-4.27,1.62-5.67,2.89ZM126.96,59.95c.4-.49.82-1,1.36-1.4,1.72-1.29,4.66-1.23,6.3.12.5.41.86.89,1.24,1.4-3.04,0-6.07.03-9.07.08.06-.07.12-.13.17-.2ZM115.43,60.37c-.38,0-.76.02-1.14.02.11-.37.42-.62.68-.76.58-.32,1.39-.42,2.08-.27.75.16,1.41.53,2.03.93-1.22.03-2.44.05-3.65.08ZM123.75,61.85c-.98.14-2.07-.2-3.34-1.05-.05-.03-.09-.06-.14-.1,1.88-.04,3.77-.08,5.67-.11-.71.73-1.43,1.14-2.19,1.25Z"/>
    <path class="cls-2" d="M97.57,9.14c-.38-.39-1.01-.52-1.5-.29-.49.23-.81.79-.76,1.33.05.46.39.91.83,1.1-.5.75-1,1.32-1.49,1.75-.49.38-.96.64-1.41.81-.21-.44-.36-.93-.45-1.46-.17-1.05-.1-2.14-.02-3.19.06,0,.12.02.17.02.4,0,.8-.19,1.04-.5.31-.41.33-1.02.04-1.45-.29-.43-.86-.64-1.36-.51-.5.14-.88.61-.92,1.12-.03.53.32,1.08.8,1.26,0,0,.01,0,.02,0-.3,1.07-.62,2.18-1.23,3.13-.34.53-.77.96-1.24,1.28-.61-.37-1.07-.84-1.35-1.18-.14-.19-.29-.39-.46-.62-.33-.44-.58-.94-.79-1.46.14-.43.4-.83.79-1.05.48-.27,1.16-.21,1.51.22-.1-.48-.39-.92-.79-1.21-.4-.28-.91-.41-1.4-.35.13-.76-.17-1.57-.74-2.07-.03-.03-.06-.06-.1-.08-.03.03-.07.05-.1.08-.58.5-.88,1.31-.74,2.07-.49-.06-1,.06-1.4.35-.4.28-.69.73-.79,1.21.35-.43,1.03-.49,1.51-.22.4.22.66.62.8,1.06-.19.49-.42.98-.74,1.45-.32.47-.7.87-1.12,1.21-.39.28-.77.49-1.14.66-.83-.59-1.3-1.47-1.56-2.14-.26-.69-.4-2.04-.52-3.13-.04-.38-.08-.73-.11-.99,0-.01-.01-.02-.02-.03.06,0,.11,0,.16-.02.55-.1,1.02-.63,1.08-1.2.06-.55-.27-1.13-.77-1.36-.51-.23-1.15-.11-1.54.29-.38.4-.48,1.06-.22,1.55.21.4.66.69,1.12.73,0,.01-.02.02-.02.04-.02.15-.03.32-.05.5-.12,1.15-.31,2.88-.71,3.65-.42.81-1.07,1.41-1.79,1.69-1.27-.87-2.68-2.17-3.49-3.98-.15-.43-.3-.87-.47-1.35-.39-1.08-.43-1.66-.83-3.01,1.32.76,2.47,1.43,3.79,2.19-.13-1.83-.15-3.66-.05-5.49-1.23.59-2.4,1.28-3.51,2.06.51-1.29,1.2-2.52,2.04-3.63-1.78-.04-3.56-.03-5.34.05.33.5.66,1.01.98,1.52.27.44.65.91.84,1.39.06.16.33.66.26.69-.15.06-.84-.44-1.03-.53-.46-.2-.87-.49-1.31-.72-.15-.08-1.24-.57-1.24-.73,0,1.81,0,3.63,0,5.44,1.21-.7,2.42-1.41,3.63-2.11-.37,1.49-.79,2.87-1.32,4.29-.18.4-.39.76-.62,1.11-1.01,1.41-2.04,2.29-3.03,2.81-.78-.35-1.44-1.07-1.85-2.02-.33-.76-.49-2.51-.58-3.56-.01-.12-.02-.22-.03-.32.06,0,.13,0,.18-.02.55-.1,1.02-.63,1.08-1.2.06-.55-.27-1.13-.77-1.36-.51-.23-1.15-.11-1.54.29-.38.4-.48,1.06-.22,1.55.2.38.61.66,1.04.72-.03.25-.06.55-.09.89-.1,1.06-.22,2.39-.43,3.06-.3.95-.78,1.72-1.38,2.26-.97-.36-1.62-.86-1.74-.96-.25-.25-.49-.53-.7-.83-.32-.47-.55-.95-.74-1.44.13-.44.4-.85.8-1.07.48-.27,1.16-.21,1.51.22-.1-.48-.39-.92-.79-1.21-.4-.28-.91-.41-1.4-.35.13-.76-.17-1.57-.74-2.07-.03-.03-.06-.06-.1-.08-.03.03-.07.05-.1.08-.58.5-.88,1.31-.74,2.07-.49-.06-1,.06-1.4.35-.4.28-.69.73-.79,1.21.35-.43,1.03-.49,1.51-.22.39.22.65.61.79,1.05-.21.52-.46,1.02-.79,1.46-.22.3-.42.57-.6.81-.35.39-.7.69-1.04.93-.43-.31-.83-.71-1.15-1.21-.62-.95-.93-2.05-1.23-3.13,0,0,.01,0,.02,0,.48-.18.84-.73.8-1.26-.03-.52-.42-.99-.92-1.12-.5-.14-1.07.08-1.36.51-.29.43-.27,1.04.04,1.45.23.31.64.5,1.04.5.06,0,.12,0,.17-.01.08,1.05.15,2.14-.02,3.19-.09.57-.26,1.09-.49,1.55-1.03-.35-1.82-1.07-2.16-1.42-.32-.35-.64-.76-.96-1.24.3-.12.56-.34.7-.61.25-.48.16-1.12-.21-1.52-.38-.39-1.01-.52-1.5-.29-.49.23-.81.79-.76,1.33.06.54.51,1.07,1.06,1.17.07.01.13.02.2.02h0s.07,0,.11,0l.32,4.68c15.09,2.09,30.76,2.34,46.75,0l.32-4.67s0,0,.01,0h0c.49,0,.99-.3,1.22-.72.25-.48.16-1.12-.21-1.52ZM53.19,9c-.38.07-.82-.1-1.05-.4-.26-.34-.28-.86-.03-1.22.19-.29.54-.46.88-.46.09,0,.17.01.26.03.42.11.74.51.77.94.03.44-.27.91-.67,1.06-.05.02-.1.03-.15.04ZM52.88,14c.23-.47.4-1,.49-1.58.13-.78.12-1.58.08-2.36.25.81.54,1.61,1.01,2.33.32.49.71.9,1.13,1.21-.98.59-1.92.62-2.72.4ZM63.87,6.52c-.22-.42-.14-.98.19-1.32.22-.23.53-.35.84-.35.16,0,.32.03.47.1.43.2.71.69.66,1.16-.05.48-.46.93-.92,1.02-.05.01-.11.02-.17.02-.42,0-.87-.26-1.06-.63ZM63.05,13.62c.58-.56,1.05-1.34,1.35-2.28.22-.68.34-1.97.44-3.03.1,1.03.25,2.34.54,2.99.41.94,1.05,1.66,1.82,2.05-1.58.76-3.04.63-4.14.27ZM79.73,6.52c-.22-.42-.14-.98.19-1.32.22-.23.53-.35.84-.35.16,0,.32.03.47.1.43.2.71.69.66,1.16-.05.48-.46.93-.92,1.02-.05.01-.11.02-.17.02-.41,0-.87-.26-1.06-.63ZM78.32,13.35c.71-.32,1.33-.93,1.75-1.73.38-.72.57-2.2.69-3.33,0,.03,0,.06.01.1.12,1.1.26,2.47.53,3.18.25.67.72,1.55,1.53,2.16-1.78.72-3.35.28-4.51-.37ZM91.95,7.9c.03-.43.35-.83.77-.94.08-.02.17-.03.26-.03.34,0,.69.17.88.46.24.36.23.87-.03,1.22-.23.3-.67.47-1.05.4-.05,0-.1-.02-.15-.04-.4-.15-.7-.62-.67-1.06ZM90.28,13.67c.46-.32.88-.75,1.22-1.27.47-.72.76-1.52,1.01-2.33-.04.78-.05,1.58.08,2.36.09.54.25,1.04.46,1.49-1.09.35-2.02.14-2.76-.25Z"/>
    <path class="cls-4" d="M45.55,12.05c-.3-1.23-.93-1.73-1.4-1.11-.36.47-.58,1.51-.52,2.49.03.53.14,1.02.31,1.35.16.31.34.43.51.36.19-.08.37-.46.46-.97.09-.49.09-1.01,0-1.42-.01-.07-.05-.1-.07-.06-.03.04-.04.13-.02.2.07.33.07.75,0,1.15-.08.43-.22.74-.38.81-.14.06-.3-.05-.43-.31-.14-.28-.24-.72-.27-1.16-.05-.86.15-1.78.46-2.19.42-.55.99-.09,1.26,1.01.26,1.06.22,2.59-.08,3.64-.29,1-.79,1.55-1.29,1.4-.46-.14-.92-.87-1.23-1.95-.09-.33-.17-.69-.25-1.04-.12-.53-.24-1.08-.41-1.54-.54-1.46-1.51-1.52-2.07-.13-.17.42-.3.94-.43,1.45-.03.13-.06.25-.1.38-.69.04-1.37.08-2.04.13-.23-.51-.47-1-.76-1.21-.24-.17-.52-.05-.72.31-.14.26-.23.61-.26,1.02-3.52.25-6.87.46-10.36-.06-.8-.58-1.49-1.69-1.94-3.13-.03-.1-.09-.1-.13,0-.45,1.44-1.14,2.55-1.94,3.13-3.5.52-6.85.31-10.36.06-.03-.41-.12-.76-.26-1.02-.2-.36-.48-.49-.72-.31-.29.21-.53.7-.76,1.21-.67-.05-1.36-.09-2.04-.13-.03-.12-.07-.25-.1-.38-.13-.5-.26-1.03-.43-1.45-.56-1.39-1.53-1.33-2.07.13-.17.45-.29,1-.41,1.54-.08.35-.16.71-.25,1.04-.31,1.1-.76,1.82-1.23,1.95-.5.15-1.01-.4-1.29-1.4-.3-1.05-.34-2.58-.08-3.64.27-1.09.84-1.55,1.26-1.01.31.41.51,1.33.46,2.19-.02.44-.12.87-.27,1.16-.13.26-.28.37-.43.31-.16-.07-.3-.38-.38-.81-.07-.4-.07-.82,0-1.15.01-.07,0-.16-.02-.2-.03-.04-.06-.01-.07.06-.09.42-.09.94,0,1.42.09.52.27.89.46.97.17.08.36-.05.51-.36.17-.33.28-.83.31-1.35.05-.98-.17-2.03-.52-2.49-.47-.62-1.1-.12-1.4,1.11-.28,1.16-.25,2.83.08,3.98.28.96.74,1.54,1.22,1.54.06,0,.11,0,.17-.03.5-.15.98-.9,1.31-2.07.06-.23.12-.46.18-.7,1,0,1.99.03,2.98.08.25.91.51,1.41.79,1.55.33.16.69-.2,1.11-1.11.05-.1.09-.21.14-.31.44.03.87.06,1.3.09,2.09.15,4.11.3,6.14.3,1.54,0,3.07-.09,4.64-.32,0,0,0,0,0,.01.81.57,1.52,1.7,1.97,3.16.02.05.04.08.06.08s.05-.03.06-.08c.46-1.46,1.16-2.58,1.97-3.16,0,0,0,0,0-.01,1.57.23,3.1.32,4.64.32,2.03,0,4.05-.15,6.14-.3.43-.03.86-.06,1.3-.09.05.11.09.21.14.31.41.9.78,1.27,1.11,1.11.28-.13.54-.64.79-1.55.99-.05,1.98-.08,2.98-.08.06.24.11.48.18.7.33,1.17.81,1.92,1.31,2.07.06.02.11.03.17.03.48,0,.94-.58,1.22-1.54.33-1.15.37-2.82.08-3.98ZM4.79,12.93c.5-1.35,1.4-1.4,1.92-.12.16.4.29.91.41,1.4.02.07.04.14.05.2-.91-.05-1.83-.08-2.76-.08.11-.51.23-1,.38-1.4ZM9.11,15.07c-.39.85-.72,1.19-1.02,1.05-.23-.11-.45-.52-.67-1.25.58.03,1.15.07,1.73.11-.01.03-.03.06-.04.1ZM9.52,14.56c.19-.41.39-.77.62-.93.21-.15.46-.04.63.27.08.14.17.39.21.76-.12,0-.23-.02-.35-.02-.37-.03-.74-.05-1.11-.08ZM23.45,17.75c-.43-1.27-1.03-2.28-1.72-2.89.7-.61,1.3-1.62,1.72-2.89.43,1.27,1.03,2.28,1.72,2.89-.7.61-1.3,1.62-1.72,2.89ZM39.78,14.21c.12-.49.25-1,.41-1.4.52-1.29,1.42-1.23,1.92.12.15.41.26.89.38,1.4-.92,0-1.85.03-2.76.08.02-.07.04-.13.05-.2ZM36.27,14.64c-.12,0-.23.02-.35.02.03-.37.13-.62.21-.76.17-.32.42-.42.63-.27.23.16.43.53.62.93-.37.03-.74.05-1.11.08ZM38.8,16.12c-.3.14-.63-.2-1.02-1.05-.01-.03-.03-.06-.04-.1.57-.04,1.15-.08,1.73-.11-.22.73-.43,1.14-.67,1.25Z"/>
  </g>
</svg>